<?xml version="1.0" encoding="UTF-8" standalone="no"?>
<!-- Created with Inkscape (http://www.inkscape.org/) -->

<svg
   version="1.1"
   id="svg1"
   width="512"
   height="512"
   viewBox="0 0 512 512"
   sodipodi:docname="dobra-sprava-logo-insc.svg"
   inkscape:version="1.4.3 (0d15f75, 2025-12-25)"
   xmlns:inkscape="http://www.inkscape.org/namespaces/inkscape"
   xmlns:sodipodi="http://sodipodi.sourceforge.net/DTD/sodipodi-0.dtd"
   xmlns="http://www.w3.org/2000/svg"
   xmlns:svg="http://www.w3.org/2000/svg">
  <defs
     id="defs1" />
  <sodipodi:namedview
     id="namedview1"
     pagecolor="#ffffff"
     bordercolor="#000000"
     borderopacity="0.25"
     inkscape:showpageshadow="2"
     inkscape:pageopacity="0.0"
     inkscape:pagecheckerboard="true"
     inkscape:deskcolor="#d1d1d1"
     inkscape:zoom="1.4453125"
     inkscape:cx="255.65405"
     inkscape:cy="256"
     inkscape:window-width="1470"
     inkscape:window-height="959"
     inkscape:window-x="481"
     inkscape:window-y="66"
     inkscape:window-maximized="0"
     inkscape:current-layer="g1" />
  <g
     inkscape:groupmode="layer"
     inkscape:label="Image"
     id="g1"
     transform="translate(-92.868004,-49.540227)">
    <path
       style="fill:#f3e99f"
       d="m 376.65887,544.72506 c -19.02417,-0.72197 -23.99879,-1.4367 -44.2389,-6.356 -13.23738,-3.2173 -19.38121,-5.27492 -34.89253,-11.68578 -9.76102,-4.03426 -32.33912,-15.41753 -37.68018,-18.99734 -2.29909,-1.54096 -4.45669,-2.80174 -4.79467,-2.80174 -0.89616,0 -20.86196,-14.01301 -29.02515,-20.37133 -28.73494,-22.38167 -51.42951,-52.50766 -58.10274,-77.12867 -2.56404,-9.46009 -2.54887,-28.77327 0.0283,-36 3.79948,-10.65434 12.01477,-21.84947 22.00503,-29.98664 l 5.60143,-4.56243 -4.45891,6.057 c -2.4524,3.33135 -4.71706,6.87034 -5.03257,7.86443 -0.31551,0.99408 -1.73978,2.43151 -3.16506,3.1943 -3.12117,1.67039 -7.58258,7.9598 -11.10669,15.65747 -3.49393,7.63175 -4.24257,21.34851 -1.8204,33.3539 1.85134,9.17606 8.44723,23.89815 15.64599,34.92197 22.40742,34.31364 72.68685,71.27503 122.40565,89.98278 27.10667,10.19946 53.20907,14.96964 82.07386,14.9989 33.94691,0.0344 65.83433,-6.98736 80.1602,-17.65168 1.77874,-1.32411 5.14994,-3.08343 7.49156,-3.9096 5.13612,-1.81213 13.81303,-6.60598 19.27438,-10.64878 l 4,-2.96102 -4,3.66109 c -9.03434,8.2689 -18.86412,14.8664 -29.13117,19.55213 -5.97786,2.7282 -11.60137,4.96392 -12.49671,4.96827 -0.89533,0.004 -3.17248,0.65329 -5.06033,1.44208 -13.61576,5.68903 -42.48111,8.59071 -73.68036,7.40669 z m -10.38143,-19.50314 c 0.6875,-0.27741 1.8125,-0.27741 2.5,0 0.6875,0.27741 0.125,0.50439 -1.25,0.50439 -1.375,0 -1.9375,-0.22698 -1.25,-0.50439 z M 483.65248,479.4575 c 2.65559,-3.38814 4.19913,-6.82821 4.96852,-11.0733 0.39873,-2.2 1.26019,-6.925 1.91434,-10.5 2.75974,-15.08221 -0.79316,-32.90203 -10.16835,-51 -8.15045,-15.73372 -8.77745,-16.60193 -21.48399,-29.74919 -6.74151,-6.97533 -12.11445,-12.82526 -11.93987,-12.99983 0.53593,-0.53593 14.84173,9.36028 19.08431,13.20179 l 4,3.62187 -5.45887,-3.99512 c -3.00238,-2.19731 -5.66541,-3.78857 -5.91785,-3.53613 -0.25244,0.25244 2.66785,3.72095 6.48953,7.70779 14.91035,15.55475 25.04563,29.25052 23.24863,31.41578 -0.84283,1.01555 -0.73155,2.41753 0.44404,5.59411 3.56986,9.64615 4.99874,18.33425 5.09626,30.98713 0.0756,9.80432 0.40133,12.74861 1.41067,12.75 2.03253,0.003 -3.35086,9.1523 -8.7033,14.79196 -2.53501,2.67104 -3.87784,3.92346 -2.98407,2.78314 z M 322.06936,462.01628 c -0.32607,-1.02735 -0.19273,-2.93985 0.29632,-4.25 0.48904,-1.31014 1.19969,-4.63208 1.57922,-7.38208 0.37954,-2.75 1.11065,-6.35 1.6247,-8 1.72353,-5.53216 3.93849,-29.86891 3.94821,-43.38067 0.009,-12.58687 -2.0369,-30.48131 -4.10786,-35.92834 -1.29352,-3.40222 -3.53047,-1.30607 -4.39309,4.11658 -3.77042,23.70163 -19.51581,63.83488 -32.86929,83.78018 -4.54347,6.78631 -5.33024,8.55844 -4.33546,9.76528 1.05908,1.28485 0.89391,1.30738 -1.28467,0.17524 -1.375,-0.71455 -2.65213,-1.42785 -2.83806,-1.58511 -0.18593,-0.15727 0.54571,-1.55881 1.62586,-3.11455 8.8665,-12.77034 18.45987,-30.97191 23.86568,-45.28054 4.88264,-12.92385 10.15269,-29.69166 11.80119,-37.54807 2.86486,-13.65327 4.99364,-20.82606 6.30956,-21.25962 1.87359,-0.6173 4.21509,5.85839 6.42158,17.75962 3.87062,20.87711 3.42899,44.69228 -1.33236,71.84852 -1.09436,6.24168 -1.70331,11.63496 -1.35321,11.98506 1.68241,1.68241 8.16548,-10.31449 13.69015,-25.33358 4.29095,-11.66517 5.39295,-15.57028 8.46582,-30 2.63137,-12.35652 2.76931,-14.33647 2.7867,-40 0.0219,-32.36819 -2.10856,-49.15301 -9.64663,-76 -1.08099,-3.85 -2.31923,-8.35 -2.75163,-10 -0.80336,-3.06558 -2.66769,-8.47074 -8.10552,-23.5 -4.68742,-12.95527 -4.78252,-11.80236 1.72054,-20.85955 8.26871,-11.51632 9.72341,-13.97995 14.17023,-23.99818 6.39024,-14.39658 11.32632,-34.57415 12.59973,-51.50492 0.54102,-7.19319 -0.27564,-18.63735 -1.32997,-18.63735 -0.33848,0 -2.1291,4.47161 -3.97915,9.93691 -7.35835,21.73754 -17.29681,38.79882 -30.85936,52.97604 -9.21777,9.63553 -11.94599,10.42085 -11.49401,3.30857 0.80582,-12.68014 -14.13585,-25.54167 -29.76714,-25.62305 -10.16847,-0.0529 -17.58052,4.81702 -21.91909,14.40153 -2.84486,6.28471 -2.62773,9.94506 0.87693,14.7831 3.44101,4.75018 8.68271,8.03602 18.75419,11.75638 3.96662,1.46525 7.7163,3.2717 8.33262,4.01432 2.02987,2.44584 -0.0813,5.37696 -6.86023,9.5248 -11.84587,7.24812 -15.5174,10.15074 -24.68442,19.51487 -11.33298,11.57667 -23.06876,30.44981 -26.83579,43.15653 -2.32844,7.85417 -0.15949,6.8721 7.87261,-3.5646 5.19032,-6.74417 23.51465,-23.91564 29.69331,-27.82517 8.10424,-5.12794 15.46565,-1.9308 20.60638,8.94957 3.78506,8.01109 4.62603,11.2303 7.08765,27.13137 1.42022,9.17402 1.69656,13.31091 0.9493,14.2113 -0.74145,0.8934 -0.71359,2.3019 0.0939,4.74873 1.75318,5.31218 1.43436,38.12878 -0.49727,51.18472 -3.96174,26.77752 -11.60888,51.73597 -23.79183,77.65087 -3.49048,7.42478 -4.73365,8.50547 -6.51076,5.65986 -0.93169,-1.49188 -0.91937,-1.84892 0.057,-1.65022 1.37238,0.27931 6.84505,-10.12063 9.12413,-17.33894 0.79751,-2.52588 2.33896,-6.35088 3.42544,-8.5 3.87825,-7.6714 8.6873,-24.19241 13.65416,-46.90749 3.24252,-14.8291 4.87274,-49.94796 2.59651,-55.9349 -0.86074,-2.26395 -1.5413,-2.5651 -5.79681,-2.5651 -7.3952,0 -21.65105,3.48019 -32.70168,7.98326 -5.48557,2.23533 -10.41307,4.50356 -10.95,5.04049 -0.53694,0.53694 -1.6166,0.97625 -2.39926,0.97625 -4.52668,0 -26.81499,19.84133 -29.76818,26.5 -2.18325,4.92268 -1.48194,0.45604 0.89279,-5.68608 3.09033,-7.99303 8.06249,-14.79278 10.37528,-14.18888 1.11677,0.29161 4.66305,-1.48073 9.15312,-4.5745 4.0315,-2.7778 7.56716,-5.05054 7.85703,-5.05054 0.28987,0 3.29137,-1.30788 6.67,-2.9064 3.37863,-1.59851 7.71797,-3.59897 9.64297,-4.44544 1.925,-0.84648 4.625,-2.19032 6,-2.98631 3.17934,-1.84053 10.50097,-3.42019 19.75,-4.26111 3.9875,-0.36254 7.25,-1.0275 7.25,-1.47769 0,-0.45019 -2.3625,-0.98381 -5.25,-1.18581 l -5.25,-0.36728 6.05,-0.18498 c 3.3275,-0.10174 6.518,-0.65298 7.09,-1.22498 0.72001,-0.72001 0.6331,-4.02768 -0.28246,-10.75 -1.80056,-13.22037 -3.13736,-18.62445 -6.41391,-25.92842 -6.78124,-15.11655 -12.51511,-15.02756 -29.10147,0.45162 -13.61117,12.70259 -18.34238,17.80511 -24.60478,26.53581 -3.44445,4.80204 -6.70695,8.73099 -7.25,8.73099 -2.19236,0 -0.92823,-9.66403 2.35542,-18.00688 11.39201,-28.94387 24.52184,-44.95699 51.9072,-63.30594 3.1625,-2.11897 5.75,-4.29032 5.75,-4.82524 0,-0.53493 -2.5875,-2.08839 -5.75,-3.45215 -20.22846,-8.72311 -25.87656,-14.92596 -23.7778,-26.11328 1.64157,-8.75034 7.68905,-15.41844 17.48537,-19.27979 6.48888,-2.55768 9.80412,-2.53827 18.73819,0.10968 5.60538,1.66137 8.43163,3.23426 12.78756,7.11664 5.78808,5.15883 9.50544,10.99582 9.53199,14.96712 0.0326,4.87453 1.54638,5.38186 5.55545,1.86186 14.44309,-12.6812 28.87843,-40.27242 35.61434,-68.07202 1.6168,-6.67266 3.72261,-7.23128 5.65447,-1.5 2.1256,6.30604 0.99786,36.41213 -1.79803,48 -6.03734,25.02243 -12.92735,40.08314 -26.42523,57.76233 l -2.8725,3.76234 3.21922,8.52943 c 17.34448,45.95484 24.86413,94.11523 21.02162,134.63534 -1.15127,12.14044 -4.98584,31.64135 -7.82817,39.81056 -5.48,15.75018 -7.36565,20.33085 -12.14381,29.5 -7.05745,13.54305 -10.93501,17.47077 -12.47075,12.63208 z m 175.53703,-6.71541 c 0.048,-1.16495 0.28494,-1.4019 0.60416,-0.60417 0.28887,0.72187 0.25335,1.58438 -0.0789,1.91667 -0.33229,0.33229 -0.56864,-0.25834 -0.52522,-1.3125 z m 1.15305,-5.41667 c 0,-1.925 0.2058,-2.7125 0.45733,-1.75 0.25152,0.9625 0.25152,2.5375 0,3.5 -0.25153,0.9625 -0.45733,0.175 -0.45733,-1.75 z m -20.87134,-2.76531 c -0.82536,-0.53223 -0.75646,-1.09003 0.25,-2.02412 1.15313,-1.0702 1.38934,-0.94268 1.38934,0.75 0,2.27601 -0.0388,2.30619 -1.63934,1.27412 z m -78.32548,-20.16895 c -1.34379,-2.5109 -1.29317,-4.11336 0.0567,-1.79471 0.56708,0.97407 1.45339,1.51001 1.96959,1.19099 0.5162,-0.31903 0.93854,0.1215 0.93854,0.97896 0,2.16766 -1.72043,1.94991 -2.96482,-0.37524 z m -202.5763,-3.13227 c -0.36253,-0.58659 -0.44468,-1.281 -0.18255,-1.54313 0.26212,-0.26213 0.74306,0.21781 1.06875,1.06653 0.67618,1.76211 0.0999,2.07206 -0.8862,0.4766 z m 277.97821,-38.18347 -2.93709,-3.25 3.25,2.93709 c 1.7875,1.6154 3.25,3.0779 3.25,3.25 0,0.77256 -0.82513,0.0924 -3.56291,-2.93709 z m -73.35814,-7.33333 c 0.048,-1.16495 0.28494,-1.4019 0.60416,-0.60417 0.28887,0.72187 0.25335,1.58438 -0.0789,1.91667 -0.33229,0.33229 -0.56864,-0.25834 -0.52522,-1.3125 z M 228.02744,331.8842 c 0.33992,-0.55 0.81648,-1 1.05902,-1 0.24254,0 0.44098,0.45 0.44098,1 0,0.55 -0.47656,1 -1.05902,1 -0.58246,0 -0.7809,-0.45 -0.44098,-1 z m 9.94113,-6.5318 c 1.06762,-0.80751 2.64262,-1.45389 3.5,-1.4364 1.24626,0.0254 1.1696,0.32623 -0.38226,1.5 -1.06762,0.80751 -2.64262,1.45389 -3.5,1.4364 -1.24626,-0.0254 -1.1696,-0.32623 0.38226,-1.5 z m 7.10887,-3.33713 c 1.07338,-0.98178 13.27173,-5.15208 14.89417,-5.09193 1.44557,0.0536 -4.94986,2.8344 -10.44417,4.54125 -5.30604,1.64836 -5.70393,1.6976 -4.45,0.55068 z m 242.34627,-18.89208 c -0.73168,-0.95644 -0.93657,-1.40539 -0.45531,-0.99767 0.48126,0.40773 1.47893,0.24013 2.21703,-0.37244 1.02535,-0.85097 1.34201,-0.74487 1.34201,0.44966 0,2.38508 -1.61652,2.86449 -3.10373,0.92045 z M 381.54275,143.20563 c 0.0286,-1.53241 1.87228,-3.76718 2.54936,-3.09009 0.37039,0.37038 -0.0551,1.40199 -0.94562,2.29247 -0.89048,0.89048 -1.61216,1.2494 -1.60374,0.79762 z m -4.16016,-33.38261 c -1.85973,-1.04076 -8.32572,-11.763764 -12.32464,-20.438817 -1.86372,-4.043061 -2.92507,-8.283096 -3.25409,-13 -0.4266,-6.115725 -0.21309,-7.347394 1.69023,-9.75 3.96089,-4.999951 14.88122,-3.284805 20.33226,3.193382 2.66823,3.171021 2.79306,3.205957 9.05781,2.535059 4.87117,-0.521658 7.06629,-0.311052 9.4145,0.903251 5.76281,2.980067 6.6654,12.684617 1.77881,19.125586 -1.25485,1.654003 -6.95446,6.182207 -12.66579,10.062669 -13.17035,8.94837 -12.1574,8.41632 -14.02909,7.36887 z m 13.83566,-9.17462 c 5.92496,-3.974809 11.05278,-8.23129 12.25,-10.168427 2.74916,-4.44824 2.69788,-10.514084 -0.11916,-14.095375 -2.13881,-2.719061 -2.32186,-2.758256 -10.08536,-2.159578 -7.87271,0.6071 -7.918,0.596684 -10.44077,-2.401453 -3.35353,-3.985454 -7.33115,-5.939364 -12.09087,-5.939364 -7.81549,0 -9.83099,7.394296 -5.31522,19.5 4.25134,11.396837 12.29062,24.113627 14.42575,22.819127 0.65165,-0.39509 5.77068,-3.79481 11.37563,-7.55493 z"
       id="path8" />
    <path
       id="path7"
       style="fill:#f3da52"
       d="M 367.6766 65.911321 C 366.83241 65.942728 363.52816 69.104144 363.52816 70.003118 C 363.52816 70.448222 364.56364 69.816667 365.82894 68.598821 C 367.09425 67.380974 367.99674 66.199616 367.8348 65.973821 C 367.80211 65.92823 367.74814 65.908659 367.6766 65.911321 z M 362.97738 72.67304 C 362.83779 72.690016 362.73491 73.301164 362.72152 74.383977 C 362.70114 76.033977 362.90858 76.83054 363.18246 76.153508 C 363.45643 75.476475 363.47311 74.126475 363.21957 73.153508 C 363.13241 72.819051 363.0505 72.664147 362.97738 72.67304 z M 363.86996 79.22968 C 363.73057 79.244727 363.63479 79.608308 363.60629 80.299993 C 363.56287 81.354159 363.79938 81.944784 364.13168 81.612493 C 364.46393 81.280201 364.49867 80.418352 364.2098 79.696477 C 364.08012 79.372398 363.96533 79.219385 363.86996 79.22968 z M 358.61996 133.88398 C 358.26173 133.95296 356.48292 138.39879 354.6473 143.82148 C 347.28895 165.55902 337.35048 182.62082 323.78793 196.79804 C 314.57016 206.43357 311.84181 207.21891 312.29379 200.10663 C 313.09961 187.42649 298.15945 174.56499 282.52816 174.48359 C 272.35969 174.43066 264.94681 179.29947 260.60824 188.88398 C 257.76338 195.16869 257.98053 198.82914 261.48519 203.66718 C 264.9262 208.41736 270.16762 211.70268 280.2391 215.42304 C 284.20572 216.88829 287.95676 218.69604 288.57308 219.43866 C 290.60295 221.8845 288.49072 224.81426 281.71175 228.9621 C 269.86588 236.21022 266.19518 239.1136 257.02816 248.47773 C 245.69518 260.0544 233.95925 278.92726 230.19222 291.63398 C 227.86378 299.48815 230.03122 298.50622 238.06332 288.06952 C 243.25364 281.32535 261.57802 264.15484 267.75668 260.24531 C 275.86092 255.11737 283.22337 258.31415 288.3641 269.19452 C 292.14916 277.20561 292.99037 280.42431 295.45199 296.32538 C 296.87221 305.4994 297.14847 309.63593 296.40121 310.53632 C 295.65973 311.42972 295.68744 312.83949 296.49496 315.28632 C 298.24814 320.5985 297.92854 353.41397 295.99691 366.46991 C 293.38152 384.14739 290.09226 397.57185 284.25668 414.38398 C 278.99318 429.54799 270.31869 449.61448 268.47738 450.88398 C 268.07851 451.15898 265.66164 455.38717 263.10629 460.27851 C 256.19126 473.51494 254.81698 475.19212 251.45004 474.51874 C 244.56897 473.14252 216.63637 447.714 202.96957 430.38398 C 200.80086 427.63398 198.724 425.15251 198.35238 424.87031 C 197.98077 424.58812 195.61929 420.45653 193.10433 415.68866 C 182.45443 395.49851 179.00261 380.00059 181.88949 365.32343 C 182.74839 360.95668 183.76025 356.31836 184.13754 355.01484 C 184.8156 352.67222 184.79285 352.66395 182.22738 354.34491 C 179.24264 356.30059 174.62085 363.16268 171.41683 370.39374 C 168.32371 377.37452 167.69187 391.64375 169.97543 402.9621 C 171.82677 412.13816 178.42315 426.86016 185.62191 437.88398 C 198.74092 457.9738 220.51473 478.43329 248.52816 496.99531 C 285.84725 521.72336 322.96108 536.16526 363.52816 541.74335 C 374.56656 543.26116 407.10295 543.04381 418.243 541.37812 C 443.70325 537.57125 461.38433 532.14576 470.02816 525.48749 C 472.56057 523.53684 471.31084 523.51741 465.08675 525.40546 C 446.77587 530.95997 413.87836 531.9927 384.02816 527.95234 C 374.67816 526.68678 366.12816 525.27927 365.02816 524.82343 C 363.92816 524.3676 358.52816 522.86579 353.02816 521.48554 C 329.638 515.61564 300.7596 504.17712 278.88168 492.11835 C 261.49416 482.53462 260.83104 481.97929 262.368 478.27851 C 263.02909 476.68671 264.91724 474.61349 266.56527 473.67109 C 268.21331 472.72869 269.83437 471.24839 270.16683 470.38202 C 270.49928 469.51565 272.73472 466.91114 275.13363 464.59491 C 277.53254 462.27868 279.50158 460.02773 279.51058 459.59296 C 279.51967 459.15819 280.37144 457.58319 281.40316 456.09296 C 290.24432 443.3227 299.80043 425.17331 305.1805 410.93281 C 310.06314 398.00896 315.33279 381.24039 316.98129 373.38398 C 319.84615 359.73071 321.97591 352.55777 323.29183 352.12421 C 325.16542 351.50691 327.50722 357.98275 329.71371 369.88398 C 333.58433 390.76109 333.14303 414.57735 328.38168 441.73359 C 327.28732 447.97527 326.67806 453.36786 327.02816 453.71796 C 328.71057 455.40037 335.19294 443.40307 340.71761 428.38398 C 345.00856 416.71881 346.11154 412.8137 349.18441 398.38398 C 351.81578 386.02746 351.95217 384.04751 351.96957 358.38398 C 351.9915 326.01579 349.86115 309.23097 342.32308 282.38398 C 341.24209 278.53398 340.00548 274.03398 339.57308 272.38398 C 338.76972 269.3184 336.90349 263.91324 331.46566 248.88398 C 326.77824 235.92871 326.6833 237.08179 333.18636 228.0246 C 341.45507 216.50828 342.91142 214.04479 347.35824 204.02656 C 353.74848 189.62998 358.68444 169.45147 359.95785 152.5207 C 360.49887 145.32751 359.6821 133.88398 358.62777 133.88398 L 358.62582 133.88398 L 358.62386 133.88398 L 358.62191 133.88398 L 358.61996 133.88398 z M 268.52816 315.01484 C 268.07504 315.01484 267.62191 315.08316 267.27816 315.22187 C 266.59066 315.49928 267.15316 315.72577 268.52816 315.72577 C 269.90316 315.72577 270.46566 315.49928 269.77816 315.22187 C 269.43441 315.08316 268.98129 315.01484 268.52816 315.01484 z M 263.96371 315.90741 C 263.37915 315.89518 260.67915 316.95184 257.96371 318.25702 C 252.78677 320.74532 247.31994 322.36319 242.71761 322.76874 C 241.99762 322.83218 241.67405 323.31079 241.99691 323.8332 C 242.71286 324.99163 239.06999 327.07837 237.03597 326.67499 C 235.14096 326.29918 229.53411 330.00376 229.53011 331.63398 C 229.52852 332.32148 228.95344 332.88398 228.25082 332.88398 C 226.27548 332.88398 222.42369 335.90792 223.06918 336.95234 C 224.13516 338.67714 226.14026 337.90676 233.16488 333.06757 C 237.01098 330.41804 242.15327 327.45875 244.59261 326.49335 C 247.03196 325.52795 249.92816 324.16573 251.02816 323.46406 C 252.12816 322.76239 254.60316 321.65965 256.52816 321.01484 C 260.20258 319.78404 265.79069 315.94561 263.96371 315.90741 z M 488.74496 412.29413 C 487.60594 412.3374 487.55567 414.68869 488.85824 418.21015 C 492.40567 427.80054 493.83125 436.50579 493.92855 449.15741 C 494.01098 459.87274 494.26644 461.88567 495.51058 461.64765 C 497.42884 461.28065 499.78222 446.42515 499.05746 439.25898 C 498.4386 433.13992 494.79759 420.88398 493.59847 420.88398 C 493.13178 420.88398 492.4629 419.35528 492.11214 417.48554 C 491.76137 415.61581 490.85214 413.56869 490.09066 412.93671 C 489.54576 412.48449 489.09364 412.28089 488.74496 412.29413 z M 331.52816 438.88398 C 331.16323 439.44869 330.8388 440.32432 330.66879 441.13984 C 330.80833 440.37529 331.09579 439.55304 331.52816 438.88398 z M 330.71957 443.12421 C 330.8862 443.45199 331.15616 443.57564 331.46566 443.41913 C 331.11175 443.60726 330.86382 443.46714 330.71957 443.12421 z M 274.63754 444.26484 C 273.91231 445.1416 273.55549 446.64508 273.57699 448.33906 C 273.541 446.69867 273.8598 445.18226 274.63754 444.26484 z M 279.64339 454.31171 C 279.04448 455.30046 278.34607 455.88398 277.61019 455.88398 C 277.39645 455.88398 277.18766 455.84824 276.98519 455.78046 C 277.9182 456.02323 278.87244 455.51428 279.64339 454.31171 z M 266.10043 465.88398 C 267.32852 465.88398 267.7021 466.15589 267.30941 467.24531 C 267.44974 466.43074 267.09082 465.88398 266.10043 465.88398 z M 424.618 537.61249 C 423.35339 537.8554 422.13117 538.08302 421.02816 538.28046 C 419.23506 538.60143 416.42076 538.89442 412.98324 539.15156 C 417.07061 538.78022 420.79318 538.28506 424.618 537.61249 z " />
    <path
       style="fill:#5795b1"
       d="m 401.02744,529.89183 c -39.5247,-3.3702 -84.466,-17.15874 -120.88546,-37.08913 -15.65656,-8.56798 -18.61454,-10.56655 -18.61454,-12.577 0,-0.83728 2.1375,-3.62085 4.75,-6.18572 2.6125,-2.56488 6.38052,-6.51242 8.37338,-8.77232 1.99286,-2.2599 4.07751,-4.38958 4.63255,-4.73262 0.55505,-0.34304 9.72453,3.76809 20.37662,9.13583 28.12033,14.17023 51.09607,21.94141 81.01243,27.40116 17.70057,3.23036 50.84156,3.29263 64.85502,0.12186 24.63207,-5.57341 40.38008,-15.40631 48.36694,-30.19983 12.75941,-23.63338 3.93415,-51.18004 -26.87857,-83.89731 -4.81074,-5.1081 -8.56105,-9.4732 -8.33401,-9.70024 0.88034,-0.88034 14.3921,10.16732 23.6653,19.34954 12.85751,12.73136 22.10048,25.18317 28.68107,38.63815 6.71513,13.73007 8.88463,22.14317 8.89658,34.5 0.0313,32.43219 -25.04232,55.16693 -68.97051,62.53678 -11.05967,1.85548 -36.59388,2.60772 -49.9268,1.47085 z m 49.71006,-4.00415 c 42.89397,-7.23457 67.23343,-29.18099 67.1008,-60.50348 -0.0219,-5.16978 -0.76633,-11.76627 -1.74925,-15.5 -2.16256,-8.21478 -9.0278,-22.83682 -14.61246,-31.12261 -4.80883,-7.13469 -13.03088,-17.12899 -13.61283,-16.54704 -0.2085,0.2085 1.89273,4.88502 4.6694,10.39228 6.45913,12.81105 8.99428,21.93236 8.99428,32.3608 0,14.59427 -5.22153,26.47487 -15.80193,35.95432 -35.93965,32.1999 -120.469,27.1125 -191.67705,-11.53609 -6.58843,-3.57591 -12.47793,-6.50166 -13.08776,-6.50166 -0.60984,0 -4.60181,3.83717 -8.87104,8.52703 -6.31756,6.94002 -7.54138,8.79316 -6.57555,9.95691 0.65268,0.78643 5.53518,3.84489 10.85001,6.79659 57.80878,32.10526 123.46578,46.30912 174.37338,37.72295 z M 240.32026,467.17123 c -11.73155,-8.79108 -28.58882,-25.35614 -37.01991,-36.37817 -12.22595,-15.9831 -19.83038,-32.92396 -21.85081,-48.67842 -2.06624,-16.11171 2.59206,-31.70794 12.9278,-43.28296 4.64786,-5.20513 14.54049,-12.58978 21.87336,-16.328 10.67461,-5.44181 28.72015,-10.07949 45.27674,-11.63607 11.33828,-1.06598 29,-0.43985 29,1.02809 0,0.41444 -3.4875,1.05314 -7.75,1.41934 -37.25988,3.20106 -60.69778,16.42874 -69.22599,39.06916 -3.14018,8.33643 -3.16702,22.16199 -0.0622,32 5.96892,18.9129 20.73415,38.77495 42.02917,56.53725 7.46073,6.22304 11.00897,9.8449 11.00897,11.23739 0,2.01792 -6.41338,14.56964 -10.20653,19.97536 -1.06131,1.5125 -2.77975,2.75 -3.81875,2.75 -1.03899,0 -6.52085,-3.47083 -12.1819,-7.71297 z m 18.32119,-3.78703 c 7.1538,-12.17709 7.43947,-10.86288 -4.52272,-20.80672 -15.64677,-13.00674 -27.77249,-27.06906 -35.69702,-41.39818 -19.90418,-35.99072 -8.74698,-68.18768 28.65561,-82.69311 11.20879,-4.34698 11.65381,-4.71231 4.98221,-4.08998 -23.22447,2.16637 -49.45146,15.62998 -59.36434,30.47464 -10.43667,15.62903 -12.19997,31.98244 -5.58605,51.80668 6.20581,18.601 20.43993,38.38635 41.56014,57.76835 10.4957,9.63189 21.10324,17.44677 23.31525,17.177 1.27235,-0.15517 3.60144,-3.03769 6.65692,-8.23868 z m 214.11376,-19.50256 c -6.98594,-4.25933 -20.50839,-18.5472 -27.44401,-28.99744 -14.44649,-21.76722 -26.21509,-51.99327 -31.50723,-80.92207 -1.28072,-7.00089 -2.89898,-6.11568 -5.67845,3.10615 -4.63683,15.38432 -5.97167,28.58221 -6.06973,60.01318 -0.0492,15.78349 -0.38008,28.98781 -0.7352,29.34293 -0.8192,0.8192 -3.46349,-4.26892 -5.90201,-11.35659 -10.30508,-29.95223 -12.63754,-71.48005 -6.30093,-112.1836 3.0098,-19.33361 10.0668,-47.07283 15.95609,-62.71925 1.38293,-3.67409 2.31328,-7.2043 2.06745,-7.84491 -0.24582,-0.64061 -2.6982,-4.26324 -5.44972,-8.05029 -12.0393,-16.57026 -18.20031,-34.3307 -20.65517,-59.54295 -1.00718,-10.34411 0.86296,-24.80412 2.93941,-22.72767 0.30635,0.30636 1.90916,5.37246 3.56179,11.25801 3.0015,10.68928 8.36899,22.60761 14.51084,32.22085 3.82946,5.99386 15.19037,19.40621 16.43802,19.40621 0.4759,0 1.18376,-1.9125 1.57302,-4.25 0.99301,-5.96311 3.87368,-11.19486 7.82237,-14.20668 4.43227,-3.38065 14.78458,-7.54332 18.7598,-7.54332 14.59301,0 25.57386,14.23769 20.44607,26.51022 -1.87588,4.48961 -6.12535,6.97241 -15.46709,9.03681 -4.1762,0.92288 -8.38059,2.09318 -9.34309,2.60065 -2.67198,1.4088 -2.09398,3.75869 1.38944,5.64883 5.168,2.8042 17.17295,12.58418 21.23273,17.29749 11.75746,13.65015 22.04022,37.54655 24.25112,56.35788 0.38313,3.25984 0.22115,5.52623 -0.42345,5.92461 -0.60308,0.37273 -3.66014,-4.11021 -7.23913,-10.61565 -11.54483,-20.98471 -22.09598,-34.28179 -30.23656,-38.1056 -6.68659,-3.14085 -9.57595,-0.46458 -12.70436,11.76738 -4.68875,18.33284 -5.23099,62.20361 -1.01447,82.07738 6.36295,29.9906 17.70605,58.28743 34.41552,85.85402 3.61854,5.96971 6.57916,11.25721 6.57916,11.75 0,1.46012 -2.27906,1.02321 -5.77223,-1.10658 z m -0.22777,-4.48541 c 0,-0.26838 -2.28365,-4.43088 -5.07478,-9.25 -9.75852,-16.84889 -20.97371,-41.63174 -25.23446,-55.76203 -8.64197,-28.66013 -9.11403,-32.00594 -9.10016,-64.5 0.0137,-32.0166 1.32916,-43.23887 6.21096,-52.98451 3.57308,-7.13302 6.39543,-8.28999 12.7233,-5.21567 2.4805,1.20512 6.49549,4.02128 8.92219,6.25814 4.1436,3.81944 14.01086,17.74016 21.26923,30.00661 2.79251,4.71927 3.22072,5.08784 3.25,2.7973 0.0509,-3.98448 -4.61779,-19.23869 -8.38122,-27.38415 -7.06727,-15.29617 -18.35854,-28.49974 -31.66723,-37.03039 -3.84692,-2.46581 -7.27753,-5.22112 -7.62357,-6.1229 -0.98608,-2.56967 3.9107,-6.01828 10.41842,-7.33728 13.2757,-2.69075 16.77925,-5.08142 17.94131,-12.24237 0.75493,-4.65208 -2.43969,-11.7168 -6.80326,-15.04506 -1.86282,-1.42085 -5.49716,-3.14775 -8.07631,-3.83757 -4.01478,-1.07379 -5.46078,-1.01104 -10.05197,0.43621 -6.97844,2.19976 -13.71594,6.72233 -16.21421,10.88385 -1.11353,1.85487 -2.21586,5.92874 -2.5,9.23925 -0.3249,3.78542 -1.00592,6.08563 -1.88789,6.37655 -1.81953,0.60019 -13.52503,-11.8094 -19.32157,-20.48377 -5.84078,-8.74058 -11.14156,-19.33552 -14.16336,-28.30905 -1.31332,-3.90002 -2.66855,-7.37165 -3.01163,-7.71474 -1.03324,-1.03324 -0.70121,17.90448 0.42562,24.27589 1.46255,8.26965 5.70073,22.61867 8.6577,29.31205 1.36592,3.09189 5.59061,10.24543 9.38819,15.89677 3.79759,5.65134 6.9047,10.74577 6.9047,11.32095 0,0.57518 -2.00492,6.97635 -4.45537,14.22483 -7.79248,23.05027 -13.23598,47.96078 -16.10053,73.67906 -3.02058,27.11921 -0.85376,59.5816 5.57935,83.5875 4.04606,15.09836 4.42069,14.17056 5.08261,-12.5875 0.65868,-26.62702 2.50201,-42.5967 6.40618,-55.5 2.92649,-9.67208 5.04545,-13.11198 7.05139,-11.44719 0.7609,0.63149 1.66522,2.79044 2.00961,4.79767 4.7929,27.9347 18.11647,63.19258 31.61024,83.64952 7.12081,10.79534 25.81652,29.63264 25.81652,26.01203 z"
       id="path5" />
    <path
       id="path4"
       style="fill:#ca4035"
       d="M 370.99105 66.137883 C 369.77116 66.160549 368.64465 66.431562 367.67855 66.973821 C 363.87737 69.107367 362.89124 72.82035 364.31918 79.628118 C 365.573 85.605714 370.35475 96.481584 374.87972 103.6496 C 376.35011 105.97884 378.17736 107.88398 378.94222 107.88398 C 381.61478 107.88398 401.37997 93.859424 403.46761 90.481633 C 406.17095 86.107459 406.16402 79.964049 403.45394 76.518743 C 401.7226 74.317696 400.58212 73.883977 396.52035 73.883977 C 393.84607 73.883977 390.44439 74.345668 388.96175 74.909368 C 386.52744 75.834888 385.9157 75.554616 382.6473 72.020696 C 379.14735 68.236437 374.65071 66.069885 370.99105 66.137883 z " />
    <path
       id="path3"
       style="fill:#0872c2"
       d="M 384.06918 152.13398 C 383.1364 152.16763 383.48097 170.25319 384.57699 176.45038 C 386.03954 184.72003 390.27822 199.0695 393.23519 205.76288 C 394.60111 208.85477 398.82433 216.00803 402.62191 221.65937 C 406.4195 227.31071 409.52816 232.4045 409.52816 232.97968 C 409.52816 233.55486 407.52158 239.95581 405.07113 247.20429 C 397.27865 270.25456 391.83607 295.1657 388.97152 320.88398 C 385.95094 348.00319 388.11849 380.46597 394.5516 404.47187 C 398.59766 419.57023 398.97171 418.64204 399.63363 391.88398 C 400.29231 365.25696 402.13571 349.28728 406.03988 336.38398 C 408.96637 326.7119 411.08472 323.27192 413.09066 324.93671 C 413.85156 325.5682 414.75604 327.72831 415.10043 329.73554 C 418.3578 348.72063 427.19273 376.16966 435.5848 393.38398 C 443.67324 409.97548 450.43022 419.81358 461.16879 430.63398 C 469.12185 438.64764 472.52816 441.27487 472.52816 439.3957 C 472.52816 439.12732 470.24312 434.96482 467.45199 430.1457 C 457.69347 413.29681 446.47836 388.51427 442.21761 374.38398 C 433.57564 345.72385 433.1041 342.37804 433.118 309.88398 C 433.13166 277.86738 434.44714 266.64524 439.32894 256.8996 C 442.90202 249.76658 445.72373 248.61044 452.0516 251.68476 C 454.5321 252.88988 458.54873 255.70571 460.97543 257.94257 C 465.11903 261.76201 474.98463 275.68198 482.243 287.94843 C 485.03551 292.6677 485.4637 293.03585 485.493 290.74531 C 485.54393 286.76083 480.87557 271.50795 477.11214 263.36249 C 470.04487 248.06632 458.75482 234.86189 445.44613 226.33124 C 441.59921 223.86543 438.16717 221.10998 437.82113 220.2082 C 436.83505 217.63853 441.73333 214.19126 448.24105 212.87226 C 457.19476 211.0575 462.46819 208.90377 464.1141 206.39179 C 469.95714 197.47418 463.47335 185.00271 451.3016 181.74726 C 447.28682 180.67347 445.84201 180.73556 441.25082 182.18281 C 434.27238 184.38257 427.53424 188.9041 425.03597 193.06562 C 423.92244 194.92049 422.82011 198.99534 422.53597 202.30585 C 422.21107 206.09127 421.52927 208.39189 420.6473 208.68281 C 418.82777 209.283 407.12353 196.8728 401.32699 188.19843 C 395.48621 179.45785 390.18473 168.86337 387.16293 159.88984 C 385.84961 155.98982 384.49429 152.51808 384.15121 152.17499 C 384.12295 152.14674 384.0954 152.13303 384.06918 152.13398 z M 448.50472 192.05195 C 446.65599 192.23194 445.02816 192.89735 445.02816 193.88398 C 445.02816 194.02542 445.05525 194.1615 445.11214 194.29218 C 444.51399 193.34005 445.54529 192.33413 448.34261 192.06562 C 448.39706 192.06039 448.45069 192.0563 448.50472 192.05195 z M 453.44613 193.28046 C 454.13161 193.86547 454.52816 194.62745 454.52816 195.50702 C 454.52816 195.55982 454.52549 195.61063 454.5223 195.66132 C 454.45556 194.92713 454.0674 193.9723 453.44613 193.28046 z M 435.16683 194.87616 C 434.91398 195.26452 434.82726 195.90333 434.92464 196.54218 C 434.79547 195.92146 434.8532 195.30892 435.16683 194.87616 z M 435.88363 198.3371 C 436.36346 198.73462 436.95511 198.90391 437.52621 198.82734 C 437.37241 198.86459 437.21978 198.88398 437.07504 198.88398 C 436.64023 198.88398 436.23004 198.67141 435.88363 198.3371 z M 255.67269 314.16132 C 254.95136 314.14666 253.72731 314.24011 252.05941 314.3957 C 228.83494 316.56207 202.60901 330.02565 192.69613 344.87031 C 177.52616 367.58752 180.582 394.63198 201.6766 424.32343 C 211.98803 438.83715 227.23483 454.40558 242.8348 466.35273 C 246.89279 469.46051 250.88113 471.75691 251.98519 471.62226 C 253.25754 471.46709 255.58596 468.58497 258.64144 463.38398 C 265.79524 451.20689 266.08019 452.52118 254.118 442.57734 C 227.48853 420.44098 210.66573 394.39886 208.91879 372.61054 C 206.93935 347.92232 220.39719 328.83247 247.07699 318.48554 C 255.48358 315.2253 257.8367 314.20529 255.67269 314.16132 z M 425.44222 329.79609 C 426.17394 330.35485 426.87322 331.41476 427.13363 332.45234 C 427.15765 332.54805 427.18037 332.64374 427.20199 332.7414 C 426.82837 331.53478 426.17544 330.38501 425.44222 329.79609 z M 427.37582 335.80976 C 427.10098 336.6089 426.54238 336.63066 425.94418 336.13788 C 426.57453 336.45586 427.19884 336.32435 427.37582 335.80976 z M 487.91683 402.19062 C 487.89494 402.19281 487.87774 402.20042 487.8641 402.21406 C 487.6556 402.42256 489.75735 407.09937 492.53402 412.60663 C 495.31069 418.11388 498.47041 425.82376 499.5555 429.73945 C 507.65744 458.97626 492.43688 484.5115 460.39925 495.43281 C 416.97577 510.23544 349.98692 499.74727 294.04769 469.38593 C 287.45926 465.81002 281.56963 462.88398 280.9598 462.88398 C 280.34996 462.88398 276.35794 466.72146 272.08871 471.41132 C 265.77115 478.35134 264.54866 480.2046 265.51449 481.36835 C 267.00761 483.16745 283.18343 492.1781 295.02816 497.80976 C 330.42017 514.63714 368.23748 525.09104 403.69808 527.84882 C 426.3664 529.61174 452.98515 526.99255 470.02816 521.32148 C 495.15832 512.95941 510.14212 499.40488 516.30746 479.4582 C 518.39271 472.7118 518.28584 458.23007 516.08871 449.88398 C 513.92615 441.6692 507.06204 427.04672 501.47738 418.76093 C 496.78126 411.79346 488.82895 402.09924 487.91683 402.19062 z M 454.36214 414.33906 C 455.34629 414.74579 457.14526 416.97269 458.4266 419.39179 C 458.46832 419.47056 458.50878 419.54998 458.54964 419.62812 C 457.11658 417.23585 455.27298 414.74601 454.36214 414.33906 z M 454.55746 418.79804 C 457.54881 421.95854 460.08212 424.34192 460.40511 424.29218 C 460.00435 424.47363 457.34395 421.85294 454.55746 418.79804 z M 254.81527 460.12421 C 255.3482 460.70496 255.50987 461.81595 255.20589 463.02656 C 255.16512 463.18896 255.11577 463.36049 255.05941 463.53827 C 255.44849 462.06772 255.39447 460.77111 254.81527 460.12421 z M 499.6141 481.36249 C 499.2772 481.51935 499.00599 481.8224 498.9266 482.1789 C 498.95571 481.90241 499.09545 481.65054 499.37191 481.47968 C 499.45128 481.43062 499.53252 481.39239 499.6141 481.36249 z M 501.13363 481.86445 C 501.37466 482.17191 501.52816 482.58269 501.52816 483.04999 C 501.52816 483.32843 501.37038 483.57619 501.13168 483.72773 C 501.61829 483.39153 501.64575 482.57123 501.13363 481.86445 z M 499.26254 483.2082 C 499.61187 483.59317 500.14698 483.87773 500.57308 483.88398 C 500.02947 483.87904 499.55991 483.59172 499.26254 483.2082 z M 400.5223 509.41718 C 398.67031 509.75186 397.79551 510.23888 398.02816 510.85859 C 397.48408 510.46289 397.99868 509.99049 399.78793 509.51093 C 399.92068 509.47535 400.32807 509.45123 400.5223 509.41718 z " />
  </g>
</svg>
